<?xml version="1.0" encoding="UTF-8"?>
<svg width="40px" height="40px" viewBox="0 0 40 40" version="1.1" xmlns="http://www.w3.org/2000/svg" xmlns:xlink="http://www.w3.org/1999/xlink">
    <title>Group 2</title>
    <defs>
        <rect id="path-1" x="0" y="0" width="40" height="40"></rect>
        <path d="M20.2786616,1.52292399 C21.6651758,1.52267863 22.7075808,2.72585241 22.7075808,4.32828455 C22.7075808,5.96102303 21.6286022,7.15523987 20.1358773,7.17487151 L20.1358773,5.99059318 C20.9443469,5.98053196 21.4997452,5.34348543 21.4997452,4.39822225 C21.4997452,3.43283663 20.925777,2.72597511 20.1358773,2.72597511 C19.7735379,2.72597511 19.3925154,2.86634129 19.1073996,3.09406825 L19.1073996,9 L17.9089622,9 L17.9089622,2.75174163 L17.9641058,2.69628226 C18.216611,2.44291148 18.5148616,2.18377391 18.8550076,1.92524983 C19.2044387,1.65678723 19.6861235,1.52292399 20.2786616,1.52292399 Z M2.05650229,0.00110427942 L2.05684199,1.63629671 L3.1954934,1.63629671 L3.1954934,2.84057477 L2.05684199,2.84057477 L2.05684199,4.94594484 C2.05684199,5.69746834 2.19894695,5.96102303 2.58902791,5.96102303 C2.78638963,5.96102303 3.03481855,5.88605472 3.19492725,5.77170045 L3.46192606,6.92137803 L3.36556644,6.97045712 C3.1363868,7.0949953 2.77359452,7.17499421 2.44737587,7.17499421 C1.94655495,7.17499421 1.53326162,6.99094764 1.25358093,6.63647394 C0.982505803,6.30813486 0.862933816,5.84102466 0.862933816,5.1196848 L0.862933816,2.84057477 L-1.10733933e-15,2.84057477 L-1.10733933e-15,1.63629671 L0.862933816,1.63629671 L0.862933816,0.811031888 L0.932117987,0.756308707 C1.20914635,0.533636688 1.50051591,0.332717935 1.80399706,0.15508991 L2.05650229,0.00110427942 Z M6.13508464,1.52709575 C6.77812376,1.48243378 7.40723546,1.7013265 7.85698919,2.13898924 C8.82624696,3.07983531 8.59174546,4.53257624 8.58257374,4.59061226 L8.58257374,4.59061226 L8.55992753,4.74545678 L5.04217857,4.74545678 C5.18541584,5.50704149 5.75440186,5.96924377 6.56683463,5.96924377 C7.41153824,5.96924377 8.06363585,5.39256452 8.06827832,5.38753391 L8.06827832,5.38753391 L8.35328087,6.6062903 L8.28420993,6.66604409 C7.99920738,6.89058091 7.28766348,7.16910472 6.50240616,7.16910472 C5.89650682,7.16910472 5.24882523,7.00505787 4.72071562,6.52273316 C3.5360924,5.44287058 3.60991904,3.51712996 4.41306686,2.47186814 C4.83564513,1.92512713 5.46475684,1.58181893 6.13508464,1.52709575 Z M25.7565532,1.52709575 C26.3995924,1.48243378 27.0287041,1.7013265 27.4784578,2.13898924 C28.4477156,3.07983531 28.2132141,4.53257624 28.2040423,4.59061226 L28.2040423,4.59061226 L28.1813961,4.74545678 L24.6636472,4.74545678 C24.8058654,5.50704149 25.3758705,5.96924377 26.1883032,5.96924377 C27.0330069,5.96924377 27.6851045,5.39256452 27.6897469,5.38753391 L27.6897469,5.38753391 L27.9747495,6.6062903 L27.9056785,6.66604409 C27.620676,6.89058091 26.9091321,7.16910472 26.1238748,7.16910472 C25.517296,7.16910472 24.8702938,7.00505787 24.3421842,6.52273316 C23.1576742,5.44287058 23.2313876,3.51712996 24.0345355,2.47186814 C24.4571137,1.92512713 25.0862254,1.58181893 25.7565532,1.52709575 Z M17.0246278,3.80988671 L17.0246278,7.06321659 L15.8267565,7.06321659 L15.8267565,3.88718627 C15.8267565,3.34142684 15.7650456,3.15787106 15.6501161,3.01100189 C15.5142388,2.84253793 15.3252562,2.72953334 15.0734303,2.72806097 L14.8521769,2.72806097 C14.4867803,2.72806097 14.1067769,2.86413273 13.8205288,3.09455904 L13.8205288,7.06321659 L12.6233369,7.06321659 L12.6233369,3.88718627 C12.6233369,3.34142684 12.5609466,3.15787106 12.4460171,3.01100189 C12.3101398,2.84253793 12.1217234,2.72953334 11.8693314,2.72806097 L11.6480779,2.72806097 C11.2826813,2.72806097 10.9026779,2.86413273 10.6163166,3.09455904 L10.6163166,7.06321659 L9.41923796,7.06321659 L9.41923796,2.75112814 L9.47370209,2.69640496 C9.7511248,2.41570852 10.0471063,2.15735533 10.3592821,1.92340936 L10.4429599,1.86071083 C10.7777841,1.63764639 11.2235747,1.529427 11.7537225,1.52451909 L11.7516843,1.52243323 L12.0859424,1.52243323 C12.0885467,1.52243323 12.0878673,1.52746384 12.0905848,1.52746384 C12.5994452,1.53973361 13.0392346,1.74697005 13.3508464,2.09469537 C13.4218423,2.03788633 13.4910264,1.97739635 13.5633811,1.92291857 L13.6470588,1.86022004 C13.9892431,1.63273848 14.4469229,1.52194244 14.9945083,1.52194244 C14.9943951,1.52267863 17.1003793,1.23139426 17.0246278,3.80988671 Z M31.4752873,1.52255593 C31.6019996,1.5232032 31.7285041,1.53374158 31.8538187,1.55408924 L32,1.57862878 L32,2.72830636 L31.3319368,2.72830636 C30.9671064,2.72830636 30.5872162,2.86327385 30.3008549,3.09468174 L30.3008549,7.05327807 L29.1034366,7.05327807 L29.1034366,2.75125084 L29.1579007,2.69652765 C29.4352897,2.41578916 29.7312742,2.15743341 30.0434807,1.92353206 L30.1278379,1.86095622 C30.4700221,1.63273848 30.927702,1.52255593 31.4752873,1.52255593 Z M7.00786956,2.96965277 C6.59468946,2.62708075 5.8924305,2.66155881 5.46996546,3.04965167 C5.29886536,3.20826162 5.16883596,3.41242356 5.09267961,3.64203624 L5.09267961,3.64203624 L7.40780162,3.64203624 C7.34807547,3.37554553 7.20717598,3.13865907 7.00786956,2.96965277 Z M26.628772,2.96965277 C26.2155919,2.62708075 25.513333,2.66155881 25.0908679,3.04965167 C24.919975,3.20833599 24.7901449,3.41249123 24.7141482,3.64203624 L24.7141482,3.64203624 L27.0287041,3.64203624 C26.9689779,3.37554553 26.8280784,3.13865907 26.628772,2.96965277 Z" id="path-3"></path>
    </defs>
    <g id="Page-4" stroke="none" stroke-width="1" fill="none" fill-rule="evenodd">
        <g id="Desktop-HD-Copy-25" transform="translate(-218.000000, -1339.000000)">
            <g id="Group" transform="translate(218.000000, 1222.000000)">
                <g id="Group-2" transform="translate(0.000000, 117.000000)">
                    <mask id="mask-2" fill="white">
                        <use xlink:href="#path-1"></use>
                    </mask>
                    <use id="Rectangle" fill="#00FF86" xlink:href="#path-1"></use>
                    <g id="Group" mask="url(#mask-2)">
                        <g transform="translate(4.000000, 16.000000)" id="Logo">
                            <mask id="mask-4" fill="white">
                                <use xlink:href="#path-3"></use>
                            </mask>
                            <g id="Combined-Shape" fill-rule="nonzero"></g>
                            <g id="Group" mask="url(#mask-4)" fill="#0F0017">
                                <g id="Color">
                                    <rect id="Rectangle" x="0" y="0" width="32" height="9"></rect>
                                </g>
                            </g>
                        </g>
                    </g>
                </g>
            </g>
        </g>
    </g>
</svg>